<svg width="32" height="32" viewBox="0 0 32 32" fill="none" xmlns="http://www.w3.org/2000/svg">
<path fill-rule="evenodd" clip-rule="evenodd" d="M9.99467 4H22.0067C25.316 4 28 6.68267 28 9.99467V22.0067C28 25.316 25.3173 28 22.0053 28H9.99467C6.684 28 4 25.3173 4 22.0053V9.99467C4 6.684 6.68267 4 9.99467 4V4Z" stroke="white" stroke-width="2" stroke-linecap="round" stroke-linejoin="round"/>
<path d="M22.5986 8.95104C22.3506 8.95237 22.1493 9.15371 22.1493 9.40171C22.1493 9.64971 22.3519 9.85104 22.5999 9.85104C22.8479 9.85104 23.0493 9.64971 23.0493 9.40171C23.0506 9.15238 22.8479 8.95104 22.5986 8.95104" stroke="white" stroke-width="2" stroke-linecap="round" stroke-linejoin="round"/>
<path d="M19.3943 12.6051C21.2688 14.4796 21.2688 17.5188 19.3943 19.3933C17.5198 21.2679 14.4806 21.2679 12.6061 19.3933C10.7316 17.5188 10.7316 14.4796 12.6061 12.6051C14.4806 10.7306 17.5198 10.7306 19.3943 12.6051" stroke="white" stroke-width="2" stroke-linecap="round" stroke-linejoin="round"/>
</svg>
