<svg width="32" height="32" viewBox="0 0 32 32" fill="none" xmlns="http://www.w3.org/2000/svg">
<path fill-rule="evenodd" clip-rule="evenodd" d="M10 4H22.0053C25.316 4 28 6.684 28 9.99467V22.0067C28 25.316 25.316 28 22.0053 28H9.99467C6.684 28 4 25.316 4 22.0053V10C4 6.68667 6.68667 4 10 4V4Z" stroke="white" stroke-width="2" stroke-linecap="round" stroke-linejoin="round"/>
<path d="M10.8271 14.8V22" stroke="white" stroke-width="2" stroke-linecap="round" stroke-linejoin="round"/>
<path d="M15.625 22V17.8C15.625 16.1427 16.9677 14.8 18.625 14.8V14.8C20.2823 14.8 21.625 16.1427 21.625 17.8V22" stroke="white" stroke-width="2" stroke-linecap="round" stroke-linejoin="round"/>
<path d="M10.8235 10.4507C10.6582 10.4507 10.5235 10.5853 10.5249 10.7507C10.5249 10.916 10.6595 11.0507 10.8249 11.0507C10.9902 11.0507 11.1249 10.916 11.1249 10.7507C11.1249 10.584 10.9902 10.4507 10.8235 10.4507" stroke="white" stroke-width="2" stroke-linecap="round" stroke-linejoin="round"/>
</svg>
