<svg width="32" height="32" viewBox="0 0 32 32" fill="none" xmlns="http://www.w3.org/2000/svg">
<path fill-rule="evenodd" clip-rule="evenodd" d="M28.7777 8.49737C28.4723 7.1587 27.5683 6.1027 26.419 5.74003C24.3403 5.0907 16.0003 5.0907 16.0003 5.0907C16.0003 5.0907 7.66433 5.0907 5.58166 5.74003C4.43633 6.09736 3.53233 7.15337 3.22299 8.49737C2.66699 10.9267 2.66699 16 2.66699 16C2.66699 16 2.66699 21.0734 3.22299 23.5027C3.52833 24.8414 4.43233 25.8974 5.58166 26.26C7.66433 26.9094 16.0003 26.9094 16.0003 26.9094C16.0003 26.9094 24.3403 26.9094 26.419 26.26C27.5643 25.9027 28.4683 24.8467 28.7777 23.5027C29.3337 21.0734 29.3337 16 29.3337 16C29.3337 16 29.3337 10.9267 28.7777 8.49737Z" stroke="white" stroke-width="2" stroke-linecap="round" stroke-linejoin="round"/>
<path fill-rule="evenodd" clip-rule="evenodd" d="M13.3359 20L20.2639 16L13.3359 12V20Z" stroke="white" stroke-width="2" stroke-linecap="round" stroke-linejoin="round"/>
</svg>
