<svg width="599" height="855" viewBox="0 0 599 855" fill="none" xmlns="http://www.w3.org/2000/svg">
<g clip-path="url(#clip0_1010_10379)">
<path d="M599 0H0V855H599V0Z" fill="url(#paint0_linear_1010_10379)"/>
<g opacity="0.3" filter="url(#filter0_f_1010_10379)">
<path d="M490.486 311.301C434.729 231.855 263.412 219.843 107.838 284.472C-47.7357 349.101 -128.654 465.897 -72.8976 545.343C-17.1413 624.789 154.176 636.8 309.75 572.171C465.324 507.542 546.242 390.746 490.486 311.301Z" fill="url(#paint1_radial_1010_10379)"/>
</g>
<g filter="url(#filter1_f_1010_10379)">
<path d="M325.569 142.095C365.33 154.736 367.019 200.263 401.092 220.452C428.626 236.767 470.248 229.286 498.679 244.667C536.074 264.899 601.719 288.19 588.609 321.901C573.283 361.316 483.631 345.902 447.502 376.266C422.65 397.153 446.845 434.526 426.525 458.13C402.062 486.546 367.61 524.311 323.651 520.129C277.523 515.741 273.086 460.254 234.908 439.903C201.297 421.988 141.005 438.584 120.029 411.594C99.1856 384.773 139.233 352.185 142.52 321.024C145.478 292.98 128.414 265.223 138.326 238.132C149.632 207.233 167.686 175.11 202.428 157.291C237.624 139.239 286.515 129.678 325.569 142.095Z" fill="#FBFBDA"/>
</g>
<g opacity="0.75" filter="url(#filter2_f_1010_10379)">
<path d="M467.072 619.803C558.748 684.569 671.097 705.21 718.009 665.903C764.922 626.597 728.634 542.229 636.958 477.462C545.281 412.695 432.933 392.055 386.02 431.362C339.108 470.668 375.396 555.036 467.072 619.803Z" fill="#06BCAD"/>
</g>
<g filter="url(#filter3_f_1010_10379)">
<path d="M491.842 301.791C523.088 218.667 493.961 104.856 638.291 176.776C781.561 248.166 680.674 415.584 400.507 501.461C123.435 538.734 105.74 338.019 210.944 321.52C316.151 305.023 460.595 384.915 491.842 301.791Z" fill="#06BCAD"/>
</g>
</g>
<defs>
<filter id="filter0_f_1010_10379" x="-240.523" y="92.8799" width="898.635" height="670.884" filterUnits="userSpaceOnUse" color-interpolation-filters="sRGB">
<feFlood flood-opacity="0" result="BackgroundImageFix"/>
<feBlend mode="normal" in="SourceGraphic" in2="BackgroundImageFix" result="shape"/>
<feGaussianBlur stdDeviation="75" result="effect1_foregroundBlur_1010_10379"/>
</filter>
<filter id="filter1_f_1010_10379" x="8.7135" y="31.149" width="686.932" height="594.632" filterUnits="userSpaceOnUse" color-interpolation-filters="sRGB">
<feFlood flood-opacity="0" result="BackgroundImageFix"/>
<feBlend mode="normal" in="SourceGraphic" in2="BackgroundImageFix" result="shape"/>
<feGaussianBlur stdDeviation="52.6662" result="effect1_foregroundBlur_1010_10379"/>
</filter>
<filter id="filter2_f_1010_10379" x="245.509" y="291.435" width="613.011" height="514.396" filterUnits="userSpaceOnUse" color-interpolation-filters="sRGB">
<feFlood flood-opacity="0" result="BackgroundImageFix"/>
<feBlend mode="normal" in="SourceGraphic" in2="BackgroundImageFix" result="shape"/>
<feGaussianBlur stdDeviation="60" result="effect1_foregroundBlur_1010_10379"/>
</filter>
<filter id="filter3_f_1010_10379" x="37.132" y="39.6315" width="780.293" height="580.773" filterUnits="userSpaceOnUse" color-interpolation-filters="sRGB">
<feFlood flood-opacity="0" result="BackgroundImageFix"/>
<feBlend mode="normal" in="SourceGraphic" in2="BackgroundImageFix" result="shape"/>
<feGaussianBlur stdDeviation="57.1691" result="effect1_foregroundBlur_1010_10379"/>
</filter>
<linearGradient id="paint0_linear_1010_10379" x1="299.5" y1="855" x2="299.5" y2="0" gradientUnits="userSpaceOnUse">
<stop offset="0.4" stop-color="#F5F9F9"/>
<stop offset="1" stop-color="white"/>
</linearGradient>
<radialGradient id="paint1_radial_1010_10379" cx="0" cy="0" r="1" gradientUnits="userSpaceOnUse" gradientTransform="translate(208.794 428.322) rotate(54.9382) scale(175.74 297.798)">
<stop stop-color="#0BDAC9"/>
<stop offset="1" stop-color="#06BCAD"/>
</radialGradient>
<clipPath id="clip0_1010_10379">
<rect width="599" height="855" fill="white"/>
</clipPath>
</defs>
</svg>
