<svg width="64" height="64" viewBox="0 0 64 64" fill="none" xmlns="http://www.w3.org/2000/svg">
<path d="M13.3332 56H50.6665M30.8318 8.70929C30.9469 8.50024 31.116 8.32592 31.3215 8.2045C31.5269 8.08309 31.7612 8.01904 31.9998 8.01904C32.2385 8.01904 32.4727 8.08309 32.6782 8.2045C32.8836 8.32592 33.0527 8.50024 33.1678 8.70929L41.0398 23.6533C41.2276 23.9993 41.4896 24.2995 41.8071 24.5323C42.1245 24.765 42.4896 24.9246 42.8761 24.9996C43.2626 25.0745 43.6608 25.063 44.0423 24.9658C44.4238 24.8685 44.779 24.6881 45.0825 24.4373L56.4878 14.6666C56.7068 14.4886 56.9766 14.3845 57.2584 14.3696C57.5402 14.3546 57.8195 14.4294 58.0561 14.5833C58.2927 14.7372 58.4743 14.9621 58.5749 15.2258C58.6755 15.4895 58.6898 15.7783 58.6158 16.0506L51.0585 43.3733C50.9042 43.9324 50.5719 44.426 50.1118 44.7792C49.6518 45.1324 49.0891 45.326 48.5092 45.3306H15.4932C14.9127 45.3266 14.3495 45.1332 13.8889 44.78C13.4283 44.4267 13.0955 43.9328 12.9412 43.3733L5.3865 16.0533C5.3125 15.781 5.32682 15.4922 5.4274 15.2285C5.52799 14.9648 5.70965 14.7398 5.94623 14.586C6.18281 14.4321 6.46212 14.3573 6.74394 14.3722C7.02576 14.3872 7.29555 14.4912 7.5145 14.6693L18.9172 24.44C19.2206 24.6907 19.5759 24.8712 19.9573 24.9684C20.3388 25.0657 20.7371 25.0772 21.1236 25.0023C21.51 24.9273 21.8751 24.7677 22.1926 24.5349C22.5101 24.3022 22.7721 24.002 22.9598 23.656L30.8318 8.70929Z" stroke="#06BCAD" stroke-width="3" stroke-linecap="round" stroke-linejoin="round"/>
</svg>
