<svg width="64" height="64" viewBox="0 0 64 64" fill="none" xmlns="http://www.w3.org/2000/svg">
<path d="M49.3337 40H14.667" stroke="white" stroke-width="3" stroke-linejoin="round"/>
<path d="M42.6667 10.6667H21.3333M24 12V27.36C24.0006 28.6334 23.5457 29.8649 22.7173 30.832L9.28 46.5014C8.45265 47.4688 7.99863 48.7003 8 49.9734V50.6667C8 52.0812 8.56191 53.4377 9.5621 54.4379C10.5623 55.4381 11.9188 56 13.3333 56H50.6667C52.0812 56 53.4377 55.4381 54.4379 54.4379C55.4381 53.4377 56 52.0812 56 50.6667V49.9734C55.9999 48.6997 55.544 47.4681 54.7147 46.5014L41.2853 30.832C40.4561 29.8653 40.0001 28.6337 40 27.36V12M32 24.0267L32.0267 23.9974M29.3333 5.36002L29.36 5.33069" stroke="white" stroke-width="3" stroke-linecap="round" stroke-linejoin="round"/>
</svg>
