<svg width="64" height="64" viewBox="0 0 64 64" fill="none" xmlns="http://www.w3.org/2000/svg">
<path fill-rule="evenodd" clip-rule="evenodd" d="M15.9573 56H10.6667C9.19467 56 8 54.8054 8 53.3334V37.3334C8 35.8614 9.19467 34.6667 10.6667 34.6667H15.9573C17.4293 34.6667 18.624 35.8614 18.624 37.3334V53.3334C18.624 54.8054 17.4293 56 15.9573 56Z" stroke="#06BCAD" stroke-width="2.6" stroke-linecap="round" stroke-linejoin="round"/>
<path d="M34.56 45.3333H40.7574C41.9067 45.3333 43.024 44.96 43.944 44.2667L50.36 39.4347C51.9627 38.2293 54.2027 38.3893 55.6187 39.8107V39.8107C57.1894 41.3893 57.1894 43.9467 55.6187 45.5227L50.1147 51.0507C48.632 52.5387 46.744 53.5547 44.6854 53.968L36.9014 55.5307C35.36 55.84 33.768 55.8027 32.24 55.4187L25.2027 53.6533C24.3627 53.44 23.496 53.3333 22.6267 53.3333H18.624" stroke="#06BCAD" stroke-width="2.6" stroke-linecap="round" stroke-linejoin="round"/>
<path d="M34.56 45.3334H38.504C40.7254 45.3334 42.528 43.5254 42.528 41.2934V40.4854C42.528 38.632 41.272 37.016 39.48 36.568L33.392 35.04C32.4027 34.792 31.3867 34.6667 30.368 34.6667V34.6667C27.9067 34.6667 25.4987 35.3974 23.4507 36.7707L18.624 40" stroke="#06BCAD" stroke-width="2.6" stroke-linecap="round" stroke-linejoin="round"/>
<path fill-rule="evenodd" clip-rule="evenodd" d="M40.7626 9.76266L39.832 10.7573L38.8986 9.76266C36.8533 7.58132 33.4613 7.40266 31.2 9.35466V9.35466C28.888 11.3493 28.6133 14.808 30.5146 17.2027C33.2346 20.6267 36.352 24.008 39.832 26.6667C43.4 23.9413 46.584 20.4587 49.352 16.9467C51.1493 14.6667 50.7786 11.3573 48.5866 9.46132L48.4853 9.37332C46.2026 7.40266 42.808 7.58132 40.7626 9.76266V9.76266Z" stroke="#06BCAD" stroke-width="2.6" stroke-linecap="round" stroke-linejoin="round"/>
</svg>
