<svg width="64" height="64" viewBox="0 0 64 64" fill="none" xmlns="http://www.w3.org/2000/svg">
<g id="Health, Medicine/Hand, Arm, Heart">
<g id="Group">
<g id="Group_2">
<path id="Path" fill-rule="evenodd" clip-rule="evenodd" d="M15.9573 56.0003H10.6667C9.19467 56.0003 8 54.8057 8 53.3337V37.3337C8 35.8617 9.19467 34.667 10.6667 34.667H15.9573C17.4293 34.667 18.624 35.8617 18.624 37.3337V53.3337C18.624 54.8057 17.4293 56.0003 15.9573 56.0003Z" stroke="#06BCAD" stroke-width="2.6" stroke-linecap="round" stroke-linejoin="round"/>
<path id="Path_2" d="M34.56 45.3329H40.7574C41.9067 45.3329 43.024 44.9595 43.944 44.2662L50.36 39.4342C51.9627 38.2289 54.2027 38.3889 55.6187 39.8102V39.8102C57.1894 41.3889 57.1894 43.9462 55.6187 45.5222L50.1147 51.0502C48.632 52.5382 46.744 53.5542 44.6854 53.9675L36.9014 55.5302C35.36 55.8395 33.768 55.8022 32.24 55.4182L25.2027 53.6529C24.3627 53.4395 23.496 53.3329 22.6267 53.3329H18.624" stroke="#06BCAD" stroke-width="2.6" stroke-linecap="round" stroke-linejoin="round"/>
<path id="Path_3" d="M34.56 45.3337H38.504C40.7254 45.3337 42.528 43.5257 42.528 41.2937V40.4857C42.528 38.6323 41.272 37.0163 39.48 36.5683L33.392 35.0403C32.4027 34.7923 31.3867 34.667 30.368 34.667V34.667C27.9067 34.667 25.4987 35.3977 23.4507 36.771L18.624 40.0003" stroke="#06BCAD" stroke-width="2.6" stroke-linecap="round" stroke-linejoin="round"/>
<path id="Path_4" fill-rule="evenodd" clip-rule="evenodd" d="M40.7626 9.76278L39.832 10.7574L38.8986 9.76278C36.8533 7.58144 33.4613 7.40278 31.2 9.35478V9.35478C28.888 11.3494 28.6133 14.8081 30.5146 17.2028C33.2346 20.6268 36.352 24.0081 39.832 26.6668C43.4 23.9414 46.584 20.4588 49.352 16.9468C51.1493 14.6668 50.7786 11.3574 48.5866 9.46144L48.4853 9.37344C46.2026 7.40278 42.808 7.58144 40.7626 9.76278V9.76278Z" stroke="#06BCAD" stroke-width="2.6" stroke-linecap="round" stroke-linejoin="round"/>
</g>
</g>
</g>
</svg>
