<svg width="64" height="64" viewBox="0 0 64 64" fill="none" xmlns="http://www.w3.org/2000/svg">
<g clip-path="url(#clip0_312_3042)">
<path d="M9.33333 50.6667C13.008 50.6667 16 47.6747 16 44C16 40.3253 13.008 37.3333 9.33333 37.3333C5.65867 37.3333 2.66667 40.3253 2.66667 44C2.66667 47.6747 5.65867 50.6667 9.33333 50.6667ZM9.33333 40C11.5387 40 13.3333 41.7947 13.3333 44C13.3333 46.2053 11.5387 48 9.33333 48C7.128 48 5.33333 46.2053 5.33333 44C5.33333 41.7947 7.128 40 9.33333 40ZM18.6667 62.6667C18.6667 63.4027 18.0693 64 17.3333 64C16.5973 64 16 63.4027 16 62.6667C16 58.992 13.008 56 9.33333 56C5.65867 56 2.66667 58.992 2.66667 62.6667C2.66667 63.4027 2.06933 64 1.33333 64C0.597333 64 0 63.4027 0 62.6667C0 57.52 4.18667 53.3333 9.33333 53.3333C14.48 53.3333 18.6667 57.52 18.6667 62.6667ZM64 49.3333C64 54.48 59.8133 58.6667 54.6667 58.6667H25.3333C24.5973 58.6667 24 58.0693 24 57.3333C24 56.5973 24.5973 56 25.3333 56H54.6667C58.3413 56 61.3333 53.008 61.3333 49.3333C61.3333 45.6587 58.3413 42.6667 54.6667 42.6667H28C22.8533 42.6667 18.6667 38.48 18.6667 33.3333C18.6667 28.1867 22.8533 24 28 24H33.3333C34.0693 24 34.6667 24.5973 34.6667 25.3333C34.6667 26.0693 34.0693 26.6667 33.3333 26.6667H28C24.3253 26.6667 21.3333 29.6587 21.3333 33.3333C21.3333 37.008 24.3253 40 28 40H54.6667C59.8133 40 64 44.1867 64 49.3333ZM41.3413 19.704L39.0427 27.0773C38.7333 28.0667 39.0773 29.1467 39.9093 29.768C40.3413 30.0933 40.8587 30.256 41.376 30.256C41.8507 30.256 42.3227 30.12 42.736 29.8427L49.3547 25.4133L56.0853 29.7973C56.4907 30.0613 56.9547 30.192 57.4187 30.192C57.9467 30.192 58.472 30.0213 58.912 29.6853C59.736 29.0507 60.0667 27.9653 59.7413 26.9813L57.3493 19.696L63.1333 14.984C63.9173 14.3227 64.208 13.24 63.856 12.2747C63.504 11.3093 62.5867 10.6693 61.56 10.6693H54.224L51.6267 3.38399C51.272 2.42666 50.3573 1.79199 49.336 1.79199C48.3147 1.79199 47.4 2.42666 47.0453 3.38399L44.448 10.6693H37.112C36.088 10.6693 35.1707 11.3093 34.8187 12.272C34.464 13.2347 34.7493 14.3147 35.5307 14.9787L41.3413 19.704ZM44.448 13.3333C45.576 13.3333 46.5813 12.624 46.96 11.5627L49.3333 4.89866L51.7093 11.5627C52.088 12.624 53.0933 13.3333 54.2213 13.3333H60.9333L55.6667 17.624C54.8107 18.3227 54.472 19.4747 54.8187 20.5227L57.016 27.2133L50.8133 23.1733C50.3707 22.8853 49.864 22.7413 49.3573 22.7413C48.84 22.7413 48.3227 22.8907 47.8747 23.192L41.76 27.3253L43.8907 20.4933C44.216 19.4533 43.8747 18.32 43.0293 17.632L37.744 13.3307H44.4533L44.448 13.3333Z" fill="#06BCAD"/>
</g>
<defs>
<clipPath id="clip0_312_3042">
<rect width="64" height="64" fill="white"/>
</clipPath>
</defs>
</svg>
