<svg width="64" height="64" viewBox="0 0 64 64" fill="none" xmlns="http://www.w3.org/2000/svg">
<path d="M44.3324 25.1329C44.6328 24.8324 44.8016 24.4249 44.8016 24.0001C44.8016 23.5752 44.6328 23.1677 44.3324 22.8673C44.032 22.5668 43.6245 22.398 43.1996 22.398C42.7747 22.398 42.3672 22.5668 42.0668 22.8673L30.3996 34.5377L25.1324 29.2673C24.9836 29.1185 24.807 29.0005 24.6127 28.92C24.4183 28.8395 24.21 28.798 23.9996 28.798C23.7892 28.798 23.5809 28.8395 23.3865 28.92C23.1922 29.0005 23.0156 29.1185 22.8668 29.2673C22.718 29.416 22.6 29.5926 22.5195 29.787C22.439 29.9813 22.3976 30.1897 22.3976 30.4001C22.3976 30.6104 22.439 30.8188 22.5195 31.0131C22.6 31.2075 22.718 31.3841 22.8668 31.5329L29.2668 37.9329C29.4154 38.0819 29.592 38.2001 29.7864 38.2807C29.9808 38.3614 30.1892 38.4029 30.3996 38.4029C30.6101 38.4029 30.8185 38.3614 31.0128 38.2807C31.2072 38.2001 31.3838 38.0819 31.5324 37.9329L44.3324 25.1329ZM32.886 6.66885C32.6234 6.49411 32.315 6.40088 31.9996 6.40088C31.6842 6.40088 31.3758 6.49411 31.1132 6.66885C25.072 10.7415 18.1856 13.3904 10.9724 14.4161C10.5913 14.4707 10.2427 14.661 9.99051 14.952C9.73835 15.2429 9.59956 15.615 9.59961 16.0001V30.4001C9.59961 42.8513 16.982 51.9361 31.4236 57.4944C31.7943 57.6375 32.2049 57.6375 32.5756 57.4944C47.0172 51.9361 54.3996 42.8481 54.3996 30.4001V16.0001C54.3996 15.6146 54.2603 15.242 54.0075 14.951C53.7547 14.66 53.4053 14.47 53.0236 14.4161C45.8115 13.3899 38.9262 10.741 32.886 6.66885ZM12.7996 17.3697C19.1383 16.2937 25.2176 14.0335 30.7196 10.7073L31.9996 9.91045L33.2796 10.7073C38.7817 14.0335 44.861 16.2937 51.1996 17.3697V30.4001C51.1996 41.2545 44.902 49.1617 31.9996 54.2817C19.0972 49.1617 12.7996 41.2577 12.7996 30.4001V17.3697Z" fill="#06BCAD"/>
</svg>
