<svg width="84" height="84" viewBox="0 0 84 84" fill="none" xmlns="http://www.w3.org/2000/svg">
<path d="M42 24.4932C46.2963 24.4932 49.7802 27.9771 49.7802 32.2734C49.7802 36.5697 46.2963 40.0536 42 40.0536C37.7037 40.0536 34.2197 36.5732 34.2197 32.2734C34.2197 27.9736 37.7037 24.4932 42 24.4932" stroke="#E7FAF9" stroke-width="4" stroke-linecap="round" stroke-linejoin="round"/>
<path fill-rule="evenodd" clip-rule="evenodd" d="M70.0116 39.3464C70.0116 54.6408 58.9575 68.9758 43.8207 73.2616C42.6372 73.5977 41.3627 73.5977 40.1792 73.2616C25.0424 68.9793 13.9883 54.6408 13.9883 39.3464V25.2426C13.9883 22.3994 15.7075 19.8363 18.3406 18.7614L35.3717 11.7934C39.6225 10.0532 44.3844 10.0532 48.6317 11.7934L65.6628 18.7614C68.2924 19.8363 70.0116 22.3994 70.0116 25.2426V39.3464Z" stroke="#E7FAF9" stroke-width="4" stroke-linecap="round" stroke-linejoin="round"/>
<path d="M56.0058 52.5053C55.5996 51.4794 54.9659 50.562 54.157 49.8127V49.8127C52.788 48.5452 51.0022 47.8379 49.1359 47.8379C46.0231 47.8379 37.9803 47.8379 34.8675 47.8379C33.0012 47.8379 31.212 48.5452 29.8429 49.8127V49.8127C29.0341 50.562 28.4038 51.4794 27.9941 52.5053" stroke="#E7FAF9" stroke-width="4" stroke-linecap="round" stroke-linejoin="round"/>
</svg>
