<svg width="32" height="32" viewBox="0 0 32 32" fill="none" xmlns="http://www.w3.org/2000/svg">
<path fill-rule="evenodd" clip-rule="evenodd" d="M13.3087 5.67311C13.8142 4.64866 14.8575 4.00006 15.9998 4.00006C17.1422 4.00006 18.1855 4.64866 18.6909 5.67311L20.2177 8.76822C20.6547 9.6541 21.4997 10.2682 22.4772 10.4102L25.8926 10.9066C27.0227 11.071 27.9615 11.8625 28.3145 12.9486C28.6675 14.0346 28.3735 15.2268 27.5561 16.0243L25.0837 18.4358C24.3769 19.1252 24.0545 20.1181 24.2214 21.0912L24.8048 24.4921C24.9978 25.6177 24.5351 26.7554 23.6111 27.4268C22.6872 28.0981 21.4623 28.1868 20.4512 27.6556L17.3958 26.0497C16.5218 25.5904 15.4777 25.5904 14.6037 26.0497L11.5482 27.6556C10.5372 28.1868 9.31227 28.0981 8.38834 27.4268C7.46441 26.7554 7.00169 25.6177 7.19468 24.4921L7.77804 21.0912C7.94495 20.1181 7.62252 19.1252 6.91575 18.4358L4.44352 16.0243C3.6261 15.2268 3.33214 14.0346 3.68518 12.9485C4.03821 11.8625 4.97706 11.071 6.10714 10.9066L9.5225 10.4102C10.5 10.2682 11.345 9.6541 11.782 8.76822L13.3087 5.67311Z" stroke="white" stroke-width="2" stroke-linecap="round" stroke-linejoin="round"/>
</svg>
